<?xml version="1.0" encoding="UTF-8" standalone="no"?>
<svg
   xmlns:dc="http://purl.org/dc/elements/1.1/"
   xmlns:cc="http://creativecommons.org/ns#"
   xmlns:rdf="http://www.w3.org/1999/02/22-rdf-syntax-ns#"
   xmlns:svg="http://www.w3.org/2000/svg"
   xmlns="http://www.w3.org/2000/svg"
   version="1.1"
   id="svg2"
   viewBox="0 0 480.56027 303.0155"
   height="85.517708mm"
   width="135.62479mm">
  <defs
     id="defs4" />
  <metadata
     id="metadata7">
    <rdf:RDF>
      <cc:Work
         rdf:about="">
        <dc:format>image/svg+xml</dc:format>
        <dc:type
           rdf:resource="http://purl.org/dc/dcmitype/StillImage" />
        <dc:title></dc:title>
      </cc:Work>
    </rdf:RDF>
  </metadata>
  <g
     transform="translate(-159.43972,-428.47006)"
     id="layer1">
    <path
       id="path4162"
       d="m 383.0412,727.28126 c -13.0984,-5.37798 -13.21581,-5.49622 -23.75375,-23.92266 -3.4169,-5.97472 -7.34384,-11.92593 -8.72653,-13.2249 l -2.51398,-2.36176 -4.0459,2.80381 c -5.25629,3.64261 -7.91395,3.42457 -17.01921,-1.39627 -9.25159,-4.89833 -10.95948,-6.74876 -14.40114,-15.60301 -1.4965,-3.85 -3.87556,-8.6875 -5.2868,-10.75 -2.2979,-3.35833 -3.01694,-3.75 -6.88444,-3.75 -3.27311,0 -4.92374,0.6052 -6.81854,2.5 -1.4029,1.4029 -3.65749,2.5 -5.13761,2.5 -1.45069,0 -14.85864,-4.6857 -29.79546,-10.41268 C 243.72103,647.93682 225.65,641.33392 218.5,638.99067 c -7.15,-2.34325 -13.96957,-5.12065 -15.1546,-6.17201 -1.18503,-1.05136 -2.44652,-3.56095 -2.80331,-5.57688 -0.3568,-2.01592 -0.88438,-4.46643 -1.1724,-5.44557 -0.30444,-1.03498 -5.11014,-4.08046 -11.4794,-7.27476 -7.2289,-3.62543 -11.2649,-6.25147 -11.86458,-7.71974 -1.43082,-3.50328 -6.02511,-33.21314 -6.03126,-39.00239 -0.004,-3.6992 -1.17085,-8.22297 -4,-15.50684 C 163.7975,546.63629 162,540.73036 162,539.16821 c 0,-1.56216 -0.69515,-4.80936 -1.54478,-7.21601 -1.80968,-5.12609 -1.3344,-7.75057 2.51283,-13.87573 2.15333,-3.42831 3.06025,-6.52431 3.80813,-13 0.86853,-7.52035 1.8753,-10.38175 8.73541,-24.82714 l 7.75374,-16.32714 -1.64067,-14.58617 c -1.4883,-13.23146 -1.49576,-14.80733 -0.0804,-16.96749 1.91473,-2.92225 5.77972,-4.49983 9.02739,-3.68471 1.33809,0.33584 3.86866,2.47407 5.62349,4.75163 1.75484,2.27756 3.39041,4.36602 3.63462,4.64102 0.24421,0.275 0.67203,-0.14388 0.95072,-0.93085 0.8528,-2.40813 5.3945,-6.06915 7.52912,-6.06915 1.8873,0 54.47331,11.19016 84.69036,18.02187 12.14942,2.74684 17.55173,3.29068 54,5.43609 22.275,1.31114 47.7,2.70323 56.5,3.09354 12.59036,0.55842 17.06551,1.14269 21,2.74176 3.40978,1.38581 8.45688,2.23096 15.86918,2.65733 10.27494,0.59103 10.99935,0.77653 13.25,3.39307 2.89904,3.37033 3.00114,6.12667 0.38585,10.4161 l -1.9875,3.25976 3.74123,-1.66753 c 5.86659,-2.61484 10.19577,-2.73489 16.00801,-0.44392 4.58851,1.80862 6.55917,1.99177 15.52737,1.44304 9.87219,-0.60403 10.38144,-0.53423 13.08812,1.79395 1.91184,1.6445 2.89976,3.5356 3.07627,5.88869 0.20887,2.78439 0.94785,3.85968 3.75663,5.46625 6.60946,3.7805 7.04544,4.44845 6.50192,9.96119 -0.48997,4.9695 -0.42266,5.11688 4.89306,10.71457 6.10419,6.42799 6.86185,9.89773 3.40082,15.57424 -1.08986,1.7875 -1.73281,3.25 -1.42878,3.25 0.30403,0 4.08266,-3.00027 8.39696,-6.66726 6.62489,-5.63092 7.72231,-6.99101 7.06017,-8.75 -0.96779,-2.57095 0.0642,-5.4888 2.8169,-7.96442 1.46941,-1.32151 4.17565,-2.03074 9.09063,-2.3824 l 6.99836,-0.50073 -0.14896,-4.1176 c -0.18123,-5.00933 2.52989,-14.56382 4.99709,-17.61069 1.32903,-1.64129 5.4211,-3.20378 15.47877,-5.91032 18.62205,-5.01123 19.60501,-5.91658 22.14563,-20.39698 2.45921,-14.01636 3.19836,-14.6996 15.90268,-14.6996 11.17813,0 12.5133,0.99113 16.18425,12.014 1.45088,4.35659 4.30337,10.04809 6.53503,13.0392 2.17817,2.91941 3.96031,6.31721 3.96031,7.55068 0,3.26142 -3.59169,7.00168 -14.30437,14.89612 -8.15885,6.01245 -9.58527,7.49378 -10.1108,10.5 -0.55189,3.15694 -0.22412,3.84306 3.34402,7 4.86724,4.30633 6.36612,7.85541 4.98762,11.80978 -0.83555,2.39686 -3.06043,3.88269 -13.15825,8.78741 l -12.15267,5.90281 -2.8363,11 c -2.32308,9.00957 -3.38682,11.50734 -5.87876,13.80379 -2.22555,2.05098 -3.86807,2.72223 -6.11735,2.5 -2.57842,-0.25474 -3.22374,0.13508 -3.99673,2.41433 -0.7935,2.33974 -0.007,4.44288 5.65088,15.10784 3.61499,6.81434 6.57271,13.39384 6.57271,14.6211 0,1.35129 -8.12211,13.01342 -20.59256,29.56784 l -20.59257,27.33645 1.68831,5.82433 c 1.05868,3.65221 5.56845,12.01373 12.09257,22.42067 l 10.40425,16.59636 0,9.73057 c 0,9.28409 -0.12618,9.85632 -2.75,12.47124 -4.68551,4.66962 -11.7231,8.27583 -14.69489,7.52995 -2.51436,-0.63106 -20.08319,-18.72221 -24.02717,-24.74149 -1.0882,-1.6608 -2.01235,-5.64281 -2.39901,-10.33689 -0.59865,-7.26778 -0.8042,-7.77706 -4.269,-10.57666 l -3.64008,-2.94124 -4.25996,3.08591 c -2.34298,1.69724 -5.32848,3.0859 -6.63444,3.0859 -1.30596,0 -5.30646,-1.85172 -8.89001,-4.11494 l -6.51554,-4.11493 -7.70995,0.86493 c -7.21345,0.80924 -7.72798,1.02593 -7.9899,3.36494 -0.592,5.28654 -1.33142,7.02687 -3.62367,8.52881 -2.10041,1.37623 -4.89553,1.42352 -24.42138,0.41311 l -22.0495,-1.14099 -13.58568,7.17803 c -12.99754,6.86729 -13.69642,7.39656 -16.14359,12.22583 l -2.55791,5.04779 2.08084,5.00706 c 1.14446,2.75389 2.08084,6.04696 2.08084,7.31795 0,2.69094 -3.61162,7.02287 -6.5,7.79638 -1.15486,0.30927 -6.84216,-1.45251 -13.4588,-4.16918 z"
       style="fill:#000000" />
    <path
       id="path4160"
       d=""
       style="fill:#000000" />
  </g>
</svg>
